<svg width="168" height="168" viewBox="0 0 168 168" fill="none" xmlns="http://www.w3.org/2000/svg">
<circle cx="84" cy="84" r="81" stroke="white" stroke-width="6"/>
<path d="M40.6321 87.2446C61.2988 95.3609 111.306 106.724 146 87.2446C139.556 83.0099 129.29 78.1499 116.767 75.0885M40.6321 87.2446C35.7064 83.457 25.0839 76.4013 22 78.4791V96.0102C27.4611 94.7116 38.8332 91.1404 40.6321 87.2446ZM40.6321 87.2446C51.5256 80.1722 62.6239 75.9765 73.399 73.8407M116.767 75.0885C112.698 71.3489 104.11 62.8958 102.311 59C96.4214 63.531 82.3938 72.8424 73.399 73.8407M116.767 75.0885C104.082 71.9874 89.0832 70.7318 73.399 73.8407" stroke="white" stroke-width="6"/>
</svg>
